<?xml version="1.0" encoding="UTF-8"?>
<svg id="spinner" width="128pt" height="128pt" version="1.1" viewBox="0 0 128 128" xmlns="http://www.w3.org/2000/svg">
 <g fill="#fff">
  <path d="m25.727 86.273c-1.6641-2.6875-5.1211-3.7109-7.8086-2.0469-2.6875 1.6641-3.7109 5.1211-2.0469 7.8086 1.0234 1.793 2.9453 2.8164 4.9922 2.8164 1.0234 0 1.9219-0.25781 2.9453-0.76953 2.5586-1.5391 3.457-5.1211 1.918-7.8086z"/>
  <path d="m64.129 108.29c-3.1992 0-5.7617 2.5586-5.7617 5.7617 0 3.1992 2.5586 5.7617 5.7617 5.7617 3.1992 0 5.7617-2.5586 5.7617-5.7617-0.003906-3.2031-2.5625-5.7617-5.7617-5.7617z"/>
  <path d="m102.4 86.145c-1.5352 2.6875-0.64063 6.2734 2.1758 7.8086 0.89453 0.51172 1.9219 0.76953 2.9453 0.76953 1.9219 0 3.9688-1.0234 4.9922-2.9453 1.5352-2.6875 0.64062-6.2734-2.0469-7.8086-2.9453-1.5352-6.5273-0.64062-8.0664 2.1758z"/>
  <path d="m41.984 102.4c-2.8164-1.5352-6.2734-0.64063-7.8086 2.1758-1.5352 2.8164-0.64062 6.2734 2.0469 7.8086 0.89453 0.51172 1.9219 0.76953 2.9453 0.76953 1.9219 0 3.9688-1.0234 4.9922-2.9453 1.5352-2.6875 0.51172-6.1445-2.1758-7.8086z"/>
  <path d="m108.29 64c0 3.1992 2.5586 5.7617 5.7617 5.7617 3.1992 0 5.7617-2.5586 5.7617-5.7617 0-3.1992-2.5586-5.7617-5.7617-5.7617s-5.7617 2.5625-5.7617 5.7617z"/>
  <path d="m107.39 44.672c1.0234 0 1.9219-0.25781 2.9453-0.76953 2.6875-1.6641 3.7109-5.1211 2.0469-7.9375-1.6641-2.6875-5.1211-3.7109-7.8086-2.0469-2.6875 1.5352-3.7109 5.1211-2.0469 7.8086 0.89844 1.9219 2.8164 2.9453 4.8633 2.9453z"/>
  <path d="m86.145 25.602c0.89453 0.51172 1.9219 0.76953 2.9453 0.76953 2.0469 0 3.9688-1.0234 4.9922-2.8164 1.6641-2.6875 0.64062-6.2734-2.0469-7.8086-2.6875-1.6641-6.2734-0.64062-7.8086 2.0469-1.793 2.6875-0.76953 6.2695 1.918 7.8086z"/>
  <path d="m94.078 104.45c-1.6641-2.8164-5.1211-3.7109-7.8086-2.0469-2.6875 1.6641-3.7109 5.1211-2.0469 7.9375 1.0234 1.793 3.0703 2.8164 4.9922 2.8164 1.0234 0 1.9219-0.25781 2.9453-0.76953 2.5586-1.668 3.582-5.25 1.918-7.9375z"/>
  <path d="m13.953 69.762c3.1992 0 5.7617-2.5586 5.7617-5.7617 0-24.449 19.84-44.289 44.289-44.289 3.1992 0 5.7617-2.5586 5.7617-5.7617 0-3.1992-2.5586-5.7617-5.7617-5.7617-30.723 0.003906-55.812 25.094-55.812 55.812 0 3.1992 2.5625 5.7617 5.7617 5.7617z"/>
 </g>
</svg>
